<?xml version="1.0" encoding="utf-8"?>

<!-- License Agreement at http://iconmonstr.com/license/ -->

<!DOCTYPE svg PUBLIC "-//W3C//DTD SVG 1.1//EN" "http://www.w3.org/Graphics/SVG/1.1/DTD/svg11.dtd">
<svg version="1.1" xmlns="http://www.w3.org/2000/svg" xmlns:xlink="http://www.w3.org/1999/xlink" x="0px" y="0px"
	 width="512px" height="512px" viewBox="0 0 512 512" enable-background="new 0 0 512 512" xml:space="preserve">
<path id="coffee-8-icon" d="M361.382,212.22c-0.557,8.008-1.229,19.135-2.006,26.892h30.584
	c-8.105,28.971-24.856,58.874-49.106,80.641c-4.112,12.994-8.104,25.443-16.287,43.056c55.018-30.312,92.185-97.663,96.991-150.588
	H361.382z M90.442,462H349.25v-30.271H90.442V462z M163.593,406.729c-29.553-53.065-59.371-112.583-63.098-222.099h238.846
	c-3.691,108.579-34.258,170.648-63.098,222.099H163.593z M132.365,214.63c2.239,25.051,5.937,47.314,11.295,68.299h152.27
	c5.174-20.229,9.188-42.729,11.515-68.299H132.365z M234.941,170.117c77.81-73.28-16.099-69.412,1.912-120.117
	C174.739,115.503,259.997,116.972,234.941,170.117z M189.277,170.139c51.797-48.49-10.915-53.243,1.427-87.502
	C147.31,130.446,206.321,131.694,189.277,170.139z"/>
</svg>
